<?xml version="1.0" encoding="UTF-8"?>
<svg width="15px" height="15px" viewBox="0 0 15 15" version="1.1" xmlns="http://www.w3.org/2000/svg" xmlns:xlink="http://www.w3.org/1999/xlink">
    <!-- Generator: Sketch 47.1 (45422) - http://www.bohemiancoding.com/sketch -->
    <title>caption-button</title>
    <desc>Created with Sketch.</desc>
    <defs></defs>
    <g id="Symbols" stroke="none" stroke-width="1" fill="none" fill-rule="evenodd">
        <g id="caption-button" fill-rule="nonzero" fill="#FFFFFF">
            <g id="Group-3" transform="translate(2.000000, 0.000000)">
                <path d="M5.50046176,0 C8.51498915,0 10.9999998,2.34154086 11,5.23325751 C11,5.62023359 10.954645,6.01643831 10.8668162,6.42086911 C10.5450433,7.90255631 9.67346687,9.44804839 8.42446083,11.0028007 C7.87422448,11.6877304 7.28603481,12.3292165 6.69767276,12.9104147 C6.49145868,13.1141179 6.29964287,13.296015 6.12696287,13.4539144 C6.02197952,13.5499116 5.94571059,13.6174125 5.90290276,13.6541989 L5.50049975,14 L5.0980638,13.6542359 C5.05535979,13.6175456 4.97918742,13.5501912 4.87429416,13.4544366 C4.70170479,13.2968838 4.50997369,13.1155211 4.30383873,12.9125865 C3.71563741,12.3335172 3.12758541,11.6956501 2.57744905,11.0161942 C1.39282083,9.55309758 0.546045623,8.10217023 0.186480013,6.71198156 C0.0637992693,6.23766095 0,5.77516006 0,5.32604203 C1.35693925e-16,2.38240345 2.46478876,0 5.50046176,0 Z M5.5,7.56756757 C6.65218025,7.56756757 7.5862069,6.63583583 7.5862069,5.48648649 C7.5862069,4.33713714 6.65218025,3.40540541 5.5,3.40540541 C4.34781975,3.40540541 3.4137931,4.33713714 3.4137931,5.48648649 C3.4137931,6.63583583 4.34781975,7.56756757 5.5,7.56756757 Z" id="Combined-Shape"></path>
            </g>
        </g>
    </g>
</svg>