<?xml version="1.0" encoding="UTF-8"?>
<svg width="15px" height="15px" viewBox="0 0 15 15" version="1.1" xmlns="http://www.w3.org/2000/svg" xmlns:xlink="http://www.w3.org/1999/xlink">
    <!-- Generator: Sketch 47.1 (45422) - http://www.bohemiancoding.com/sketch -->
    <title>cover-button</title>
    <desc>Created with Sketch.</desc>
    <defs></defs>
    <g id="Symbols" stroke="none" stroke-width="1" fill="none" fill-rule="evenodd">
        <g id="cover-button" fill="#FFFFFF">
            <path d="M7.14130839,11.8107361 L4.31309732,13.9198856 L4.31309732,13.9198856 C4.04746022,14.1179855 3.6715271,14.0632358 3.4734272,13.7975987 C3.360243,13.6458272 3.32533318,13.4495374 3.3792474,13.2680478 L4.44269661,9.68819363 L4.44269661,9.68819363 C4.51289485,9.45188763 4.43141423,9.19669074 4.23726621,9.04478661 L1.34458902,6.78151545 L1.34458902,6.78151545 C1.08360816,6.57732037 1.03757419,6.20022076 1.24176927,5.9392399 C1.35393359,5.79588316 1.52511078,5.71119441 1.70711963,5.70901097 L5.25037645,5.66650484 L5.25037645,5.66650484 C5.50841572,5.66340932 5.73557242,5.49566656 5.81445795,5.24996162 L6.92872122,1.77936331 L6.92872122,1.77936331 C7.03001776,1.46385475 7.36790505,1.2902016 7.68341361,1.39149814 C7.86769198,1.45066218 8.01211474,1.59508495 8.07127878,1.77936331 L9.18554205,5.24996162 L9.18554205,5.24996162 C9.26442758,5.49566656 9.49158428,5.66340932 9.74962355,5.66650484 L13.2928804,5.70901097 L13.2928804,5.70901097 C13.6242274,5.71298593 13.8896149,5.98481808 13.8856399,6.31616509 C13.8834565,6.49817395 13.7987677,6.66935113 13.655411,6.78151545 L10.7627338,9.04478661 L10.7627338,9.04478661 C10.5685858,9.19669074 10.4871052,9.45188763 10.5573034,9.68819363 L11.6207526,13.2680478 L11.6207526,13.2680478 C11.7151156,13.5856989 11.5341048,13.9197024 11.2164537,14.0140654 C11.034964,14.0679797 10.8386742,14.0330698 10.6869027,13.9198856 L7.85869161,11.8107361 L7.85869161,11.8107361 C7.64589311,11.6520408 7.35410689,11.6520408 7.14130839,11.8107361 Z" id="Star"></path>
        </g>
    </g>
</svg>