<svg width="30" height="30" viewBox="0 0 30 30" fill="none" xmlns="http://www.w3.org/2000/svg">
<path d="M24.5 11.5C24.5 12.706 23.9295 14.3852 22.8781 16.3671C21.8509 18.3032 20.4638 20.3478 19.0503 22.2314C17.6408 24.1095 16.228 25.7975 15.1656 27.0175C14.9238 27.2952 14.7005 27.5482 14.5 27.7733C14.2995 27.5482 14.0762 27.2952 13.8344 27.0175C12.772 25.7975 11.3592 24.1095 9.94975 22.2314C8.53619 20.3478 7.14914 18.3032 6.12193 16.3671C5.07045 14.3852 4.5 12.706 4.5 11.5C4.5 5.97715 8.97715 1.5 14.5 1.5C20.0228 1.5 24.5 5.97715 24.5 11.5Z" stroke="#3E0007" stroke-width="3"/>
</svg>
