<svg width="30" height="30" viewBox="0 0 30 30" fill="none" xmlns="http://www.w3.org/2000/svg">
<path d="M29 5H1C0.447715 5 0 5.44772 0 6C0 6.55228 0.447715 7 1 7H29C29.5523 7 30 6.55228 30 6C30 5.44772 29.5523 5 29 5Z" fill="white"/>
<path d="M29 14H1C0.447715 14 0 14.4477 0 15C0 15.5523 0.447715 16 1 16H29C29.5523 16 30 15.5523 30 15C30 14.4477 29.5523 14 29 14Z" fill="white"/>
<path d="M29 23H1C0.447715 23 0 23.4477 0 24C0 24.5523 0.447715 25 1 25H29C29.5523 25 30 24.5523 30 24C30 23.4477 29.5523 23 29 23Z" fill="white"/>
</svg>
