<?xml version="1.0" encoding="UTF-8"?>
<svg width="185px" height="57px" viewBox="0 0 185 57" version="1.1" xmlns="http://www.w3.org/2000/svg" xmlns:xlink="http://www.w3.org/1999/xlink">
    <!-- Generator: Sketch 52.6 (67491) - http://www.bohemiancoding.com/sketch -->
    <title>75-jaar</title>
    <desc>Created with Sketch.</desc>
    <g id="75-jaar" stroke="none" stroke-width="1" fill="none" fill-rule="evenodd">
        <g transform="translate(0.000000, 3.000000)" fill="#FFDA37" id="Group-2">
            <g>
                <path d="M16.831405,18 L16.831405,22.2527933 L10.2842975,38.5307263 L3.03471074,38.5307263 L9.27272727,23.3673184 L5.47933884,23.3673184 L5.47933884,26.3589385 L0,26.3589385 L0,18 L16.831405,18 Z M25.9636364,25.2444134 C28.7173691,25.2444134 30.7451726,25.8456644 32.0471074,27.0481844 C33.3490423,28.2507043 34,29.8295992 34,31.7849162 C34,33.0754254 33.6768627,34.2632627 33.0305785,35.3484637 C32.3842943,36.4336646 31.3867836,37.3135441 30.0380165,37.9881285 C28.6892495,38.6627129 27.0126822,39 25.0082645,39 C23.6220316,39 22.2405028,38.843577 20.8636364,38.5307263 C19.48677,38.2178755 18.2832007,37.7583829 17.2528926,37.1522346 L19.5008264,32.0488827 C20.325073,32.5377119 21.1914555,32.9092166 22.1,33.1634078 C23.0085445,33.417599 23.8936596,33.5446927 24.7553719,33.5446927 C25.5234198,33.5446927 26.1462786,33.4029344 26.6239669,33.1194134 C27.1016553,32.8358924 27.3404959,32.4399467 27.3404959,31.9315642 C27.3404959,31.442735 27.125071,31.0761185 26.6942149,30.8317039 C26.2633587,30.5872893 25.485956,30.4650838 24.3619835,30.4650838 L18.6578512,30.4650838 L19.6413223,18 L32.707438,18 L32.707438,23.2206704 L25.092562,23.2206704 L24.9520661,25.2444134 L25.9636364,25.2444134 Z" id="75-copy"></path>
                <path d="M3.46039309,49 C2.94063667,49 2.46813792,48.9133996 2.04288267,48.7401961 C1.61762741,48.5669926 1.27000333,48.3169951 1,47.9901961 L2.09350804,46.7352941 C2.47151271,47.2124207 2.87988662,47.4509804 3.31864204,47.4509804 C3.60889563,47.4509804 3.82995754,47.3660139 3.98183442,47.1960784 C4.13371129,47.0261429 4.20964859,46.7777794 4.20964859,46.4509804 L4.20964859,43.5 L1.75938058,43.5 L1.75938058,42 L6.19416318,42 L6.19416318,46.3333333 C6.19416318,47.2222267 5.96297629,47.8888867 5.50059558,48.3333333 C5.03821487,48.77778 4.35815417,49 3.46039309,49 Z M13.7677189,47.5294118 L10.7706968,47.5294118 L10.2138178,48.8627451 L8.16855272,48.8627451 L11.2972007,42 L13.2715902,42 L16.4103633,48.8627451 L14.324598,48.8627451 L13.7677189,47.5294118 Z M13.1804646,46.0980392 L12.2692079,43.9019608 L11.3579512,46.0980392 L13.1804646,46.0980392 Z M23.6396665,47.5294118 L20.6426444,47.5294118 L20.0857653,48.8627451 L18.0405003,48.8627451 L21.1691483,42 L23.1435378,42 L26.2823109,48.8627451 L24.1965456,48.8627451 L23.6396665,47.5294118 Z M23.0524122,46.0980392 L22.1411555,43.9019608 L21.2298988,46.0980392 L23.0524122,46.0980392 Z M31.5675998,47.0392157 L30.4740917,47.0392157 L30.4740917,48.8627451 L28.469327,48.8627451 L28.469327,42 L31.7093508,42 C32.3506087,42 32.9074823,42.1029401 33.3799881,42.3088235 C33.8524939,42.5147069 34.216993,42.8088216 34.4734961,43.1911765 C34.7299993,43.5735313 34.858249,44.0228732 34.858249,44.5392157 C34.858249,45.0359502 34.7384368,45.4689524 34.4988088,45.8382353 C34.2591809,46.2075182 33.9166193,46.496731 33.4711138,46.7058824 L35,48.8627451 L32.8534842,48.8627451 L31.5675998,47.0392157 Z M32.8332341,44.5392157 C32.8332341,44.2189526 32.7286093,43.9705891 32.5193568,43.7941176 C32.3101042,43.6176462 31.999605,43.5294118 31.5878499,43.5294118 L30.4740917,43.5294118 L30.4740917,45.5392157 L31.5878499,45.5392157 C31.999605,45.5392157 32.3101042,45.4526152 32.5193568,45.2794118 C32.7286093,45.1062083 32.8332341,44.8594787 32.8332341,44.5392157 Z" id="JAAR"></path>
                <g id="crown-logo" transform="translate(5.000000, 0.000000)">
                    <path d="M18.5611795,4.86361918 C18.6727462,4.88991436 18.7892521,4.90384615 18.9090909,4.90384615 C19.7249661,4.90384615 20.3863636,4.258103 20.3863636,3.46153846 C20.3863636,2.66497392 19.7249661,2.01923077 18.9090909,2.01923077 C18.0932157,2.01923077 17.4318182,2.66497392 17.4318182,3.46153846 C17.4318182,4.08116407 17.8320203,4.60952984 18.3938277,4.8136863 C18.1383189,5.35525307 17.6666286,6.28975037 17.0133928,7.31282972 L17.0133928,7.31282972 C17.484105,7.39714203 17.9196373,7.48709425 18.3060547,7.57392535 C18.4115095,6.41981253 18.5056292,5.43660795 18.5611795,4.86361918 L18.5611795,4.86361918 Z M7.43882048,4.86361918 C7.32725379,4.88991436 7.21074786,4.90384615 7.09090909,4.90384615 C6.27503389,4.90384615 5.61363636,4.258103 5.61363636,3.46153846 C5.61363636,2.66497392 6.27503389,2.01923077 7.09090909,2.01923077 C7.90678429,2.01923077 8.56818182,2.66497392 8.56818182,3.46153846 C8.56818182,4.08116407 8.16797973,4.60952984 7.60617229,4.8136863 C7.86168106,5.35525307 8.33337145,6.28975037 8.98660716,7.31282972 C8.51589503,7.39714203 8.08036268,7.48709425 7.69394531,7.57392535 C7.58849047,6.41981253 7.49437076,5.43660795 7.43882048,4.86361918 Z M2.96687453,5.31764792 C4.49337841,6.87714018 7.26810115,9.46394896 10.0098672,10.7550633 C11.7901406,9.03601947 12.6442839,4.96654865 12.9077423,3.45923496 C11.9715722,3.41237475 11.2272727,2.65643494 11.2272727,1.73076923 C11.2272727,0.774891779 12.0209498,0 13,0 C13.9790502,0 14.7727273,0.774891779 14.7727273,1.73076923 C14.7727273,2.65643494 14.0284278,3.41237475 13.0922577,3.45923496 C13.3557161,4.96654856 14.2098592,9.03601902 15.9901323,10.7550631 C18.7318985,9.46394876 21.5066214,6.87714005 23.0331254,5.31764786 C22.6776193,5.00111847 22.4545455,4.54522426 22.4545455,4.03846154 C22.4545455,3.08258409 23.2482225,2.30769231 24.2272727,2.30769231 C25.206323,2.30769231 26,3.08258409 26,4.03846154 C26,4.99433899 25.206323,5.76923077 24.2272727,5.76923077 C23.8758591,5.76923077 23.5483277,5.66939911 23.2728079,5.49719947 C21.8594607,7.71892104 19.3308207,11.9525886 18.9090909,14.4230769 C18.9090909,14.4230769 16.5454545,15 13,15 C9.45454545,15 7.09090909,14.4230774 7.09090909,14.4230769 C6.66917926,11.9525886 4.14053933,7.71892104 2.72719211,5.49719947 C2.45167233,5.66939911 2.1241409,5.76923077 1.77272727,5.76923077 C0.793677034,5.76923077 0,4.99433899 0,4.03846154 C0,3.08258409 0.793677034,2.30769231 1.77272727,2.30769231 C2.75177751,2.30769231 3.54545455,3.08258409 3.54545455,4.03846154 C3.54545455,4.5452243 3.32238064,5.00111853 2.96687453,5.31764792 Z" id="kroon-100%"></path>
                </g>
            </g>
        </g>
        <g id="Group" transform="translate(51.000000, 8.000000)" fill="#FFFFFF" font-family="Montserrat-SemiBold, Montserrat" font-size="15" font-weight="500">
            <text id="SCOUTS-PRINS">
                <tspan x="0" y="15">SCOUTS PRINS</tspan>
            </text>
        </g>
        <path d="M57.7507464,44.8448753 L51,44.8448753 L51,29.3545706 L57.0006635,29.3545706 C58.0449018,29.3545706 58.9457277,29.4801465 59.7031682,29.7313019 C60.4606087,29.9824574 61.0305189,30.3222509 61.4129161,30.7506925 C62.1041724,31.5484804 62.4497954,32.4496718 62.4497954,33.4542936 C62.4497954,34.6657494 62.0600504,35.5669407 61.2805485,36.1578947 C61.015812,36.3647286 60.83197,36.4939979 60.7290169,36.5457064 C60.6260639,36.5974148 60.4422218,36.6823632 60.1774854,36.800554 C61.1334782,37.0073879 61.8945842,37.4395166 62.4608261,38.0969529 C63.027068,38.7543893 63.3101847,39.5706322 63.3101847,40.5457064 C63.3101847,41.6241975 62.9425007,42.5770965 62.2071215,43.4044321 C61.3540818,44.3647324 59.8686383,44.8448753 57.7507464,44.8448753 L57.7507464,44.8448753 Z M54.441557,35.6260388 L56.0740905,35.6260388 C57.0300833,35.6260388 57.7397135,35.5226234 58.2030023,35.3157895 C58.6662912,35.1089556 58.8979321,34.6620533 58.8979321,33.9750693 C58.8979321,33.2880852 58.6846754,32.8337961 58.2581555,32.6121884 C57.8316356,32.3905806 57.1109749,32.2797784 56.0961517,32.2797784 L54.441557,32.2797784 L54.441557,35.6260388 Z M54.441557,41.9196676 L56.8021121,41.9196676 C57.7875201,41.9196676 58.5265651,41.7977852 59.0192691,41.5540166 C59.5119731,41.3102481 59.7583214,40.8301052 59.7583214,40.1135734 C59.7583214,39.3970417 59.4972657,38.9242855 58.9751465,38.6952909 C58.4530274,38.4662962 57.6183846,38.3518006 56.4711932,38.3518006 L54.441557,38.3518006 L54.441557,41.9196676 Z M76.1047979,33.4764543 C75.222343,32.5013802 74.1376751,32.0138504 72.8507616,32.0138504 C71.5638482,32.0138504 70.4791803,32.5013802 69.5967254,33.4764543 C68.7142704,34.4515284 68.2730496,35.6297253 68.2730496,37.0110803 C68.2730496,38.3924353 68.7142704,39.5669388 69.5967254,40.534626 C70.4791803,41.5023132 71.5638482,41.9861496 72.8507616,41.9861496 C74.1376751,41.9861496 75.222343,41.5023132 76.1047979,40.534626 C76.9872528,39.5669388 77.4284737,38.3924353 77.4284737,37.0110803 C77.4284737,35.6297253 76.9872528,34.4515284 76.1047979,33.4764543 L76.1047979,33.4764543 Z M72.839731,45 C70.5600558,45 68.6407451,44.2354647 67.0817414,42.7063712 C65.5227377,41.1772777 64.7432475,39.275173 64.7432475,37 C64.7432475,34.724827 65.5227377,32.8227223 67.0817414,31.2936288 C68.6407451,29.7645353 70.5600558,29 72.839731,29 C75.1194062,29 77.0387169,29.7645353 78.5977206,31.2936288 C80.1567243,32.8227223 80.9362145,34.724827 80.9362145,37 C80.9362145,39.275173 80.1567243,41.1772777 78.5977206,42.7063712 C77.0387169,44.2354647 75.1194062,45 72.839731,45 L72.839731,45 Z M89.6715554,41.9196676 C90.6422558,41.9196676 91.4107154,41.5614071 91.9769573,40.8448753 C92.5431992,40.1283436 92.8263159,39.1495907 92.8263159,37.9085873 L92.8263159,29.3545706 L96.267873,29.3545706 L96.267873,38.0193906 C96.267873,40.2650158 95.6501638,41.989837 94.4147269,43.1939058 C93.17929,44.3979746 91.5982486,45 89.6715554,45 C87.7448621,45 86.1601439,44.3942812 84.9173532,43.1828255 C83.6745625,41.9713698 83.0531765,40.250242 83.0531765,38.0193906 L83.0531765,29.3545706 L86.4947335,29.3545706 L86.4947335,37.9085873 C86.4947335,39.1495907 86.781527,40.1283436 87.3551228,40.8448753 C87.9287185,41.5614071 88.7008549,41.9196676 89.6715554,41.9196676 L89.6715554,41.9196676 Z M111.048,31.3822715 C112.518758,32.7340788 113.254126,34.614023 113.254126,37.0221607 C113.254126,39.4302983 112.537142,41.3360964 111.103153,42.7396122 C109.669164,44.143128 107.481444,44.8448753 104.539927,44.8448753 L99.2672855,44.8448753 L99.2672855,29.3545706 L104.716417,29.3545706 C107.466735,29.3545706 109.577242,30.0304642 111.048,31.3822715 L111.048,31.3822715 Z M108.521985,40.5900277 C109.367671,39.7922398 109.790508,38.6325099 109.790508,37.1108033 C109.790508,35.5890967 109.367671,34.4182866 108.521985,33.598338 C107.676299,32.7783893 106.378375,32.3684211 104.628172,32.3684211 L102.708842,32.3684211 L102.708842,41.7867036 L104.892908,41.7867036 C106.466619,41.7867036 107.676299,41.3878156 108.521985,40.5900277 L108.521985,40.5900277 Z M126.776761,29.3545706 L126.776761,32.434903 L119.099442,32.434903 L119.099442,35.6260388 L126.004617,35.6260388 L126.004617,38.5734072 L119.099442,38.5734072 L119.099442,41.7867036 L127.019435,41.7867036 L127.019435,44.8448753 L115.657885,44.8448753 L115.657885,29.3545706 L126.776761,29.3545706 Z M134.320794,38.2631579 L137.05639,29.3545706 L140.652376,29.3545706 L143.365911,38.2631579 L146.432427,29.3545706 L150.16078,29.3545706 L144.777832,44.8448753 L142.218726,44.8448753 L138.843353,34.0747922 L135.490041,44.8448753 L132.930934,44.8448753 L127.547986,29.3545706 L131.276339,29.3545706 L134.320794,38.2631579 Z M151.417353,29.3545706 L154.85891,29.3545706 L154.85891,44.8448753 L151.417353,44.8448753 L151.417353,29.3545706 Z M163.21921,29.3545706 L166.682828,29.3545706 L166.682828,39.4598338 C166.682828,41.3065651 166.208515,42.6878994 165.259876,43.6038781 C164.311237,44.5198568 163.094203,44.9778393 161.608737,44.9778393 C159.755582,44.9778393 158.137772,44.2613183 156.75526,42.8282548 L158.542222,40.3462604 C159.4688,41.3508822 160.439485,41.8531856 161.454309,41.8531856 C161.939659,41.8531856 162.355142,41.6648218 162.70077,41.2880886 C163.046398,40.9113555 163.21921,40.3462642 163.21921,39.5927978 L163.21921,29.3545706 Z M180.558443,29.3545706 L184,29.3545706 L184,44.8448753 L180.558443,44.8448753 L173.212042,35.1385042 L173.212042,44.8448753 L169.770485,44.8448753 L169.770485,29.3545706 L172.99143,29.3545706 L180.558443,39.3268698 L180.558443,29.3545706 Z" id="BOUDEWIJN" fill="#FFFFFF"></path>
    </g>
</svg>