<?xml version="1.0" encoding="UTF-8"?>
<svg width="185px" height="57px" viewBox="0 0 185 57" version="1.1" xmlns="http://www.w3.org/2000/svg" xmlns:xlink="http://www.w3.org/1999/xlink">
    <!-- Generator: Sketch 52.6 (67491) - http://www.bohemiancoding.com/sketch -->
    <title>75-jaar detached</title>
    <desc>Created with Sketch.</desc>
    <g id="75-jaar-detached" stroke="none" stroke-width="1" fill="none" fill-rule="evenodd">
        <g id="75-jaar" transform="translate(0.000000, 3.000000)" fill="#FFDA37">
            <g id="Group-2">
                <path d="M16.831405,18 L16.831405,22.2527933 L10.2842975,38.5307263 L3.03471074,38.5307263 L9.27272727,23.3673184 L5.47933884,23.3673184 L5.47933884,26.3589385 L0,26.3589385 L0,18 L16.831405,18 Z M25.9636364,25.2444134 C28.7173691,25.2444134 30.7451726,25.8456644 32.0471074,27.0481844 C33.3490423,28.2507043 34,29.8295992 34,31.7849162 C34,33.0754254 33.6768627,34.2632627 33.0305785,35.3484637 C32.3842943,36.4336646 31.3867836,37.3135441 30.0380165,37.9881285 C28.6892495,38.6627129 27.0126822,39 25.0082645,39 C23.6220316,39 22.2405028,38.843577 20.8636364,38.5307263 C19.48677,38.2178755 18.2832007,37.7583829 17.2528926,37.1522346 L19.5008264,32.0488827 C20.325073,32.5377119 21.1914555,32.9092166 22.1,33.1634078 C23.0085445,33.417599 23.8936596,33.5446927 24.7553719,33.5446927 C25.5234198,33.5446927 26.1462786,33.4029344 26.6239669,33.1194134 C27.1016553,32.8358924 27.3404959,32.4399467 27.3404959,31.9315642 C27.3404959,31.442735 27.125071,31.0761185 26.6942149,30.8317039 C26.2633587,30.5872893 25.485956,30.4650838 24.3619835,30.4650838 L18.6578512,30.4650838 L19.6413223,18 L32.707438,18 L32.707438,23.2206704 L25.092562,23.2206704 L24.9520661,25.2444134 L25.9636364,25.2444134 Z" id="75-copy"></path>
                <path d="M3.46039309,49 C2.94063667,49 2.46813792,48.9133996 2.04288267,48.7401961 C1.61762741,48.5669926 1.27000333,48.3169951 1,47.9901961 L2.09350804,46.7352941 C2.47151271,47.2124207 2.87988662,47.4509804 3.31864204,47.4509804 C3.60889563,47.4509804 3.82995754,47.3660139 3.98183442,47.1960784 C4.13371129,47.0261429 4.20964859,46.7777794 4.20964859,46.4509804 L4.20964859,43.5 L1.75938058,43.5 L1.75938058,42 L6.19416318,42 L6.19416318,46.3333333 C6.19416318,47.2222267 5.96297629,47.8888867 5.50059558,48.3333333 C5.03821487,48.77778 4.35815417,49 3.46039309,49 Z M13.7677189,47.5294118 L10.7706968,47.5294118 L10.2138178,48.8627451 L8.16855272,48.8627451 L11.2972007,42 L13.2715902,42 L16.4103633,48.8627451 L14.324598,48.8627451 L13.7677189,47.5294118 Z M13.1804646,46.0980392 L12.2692079,43.9019608 L11.3579512,46.0980392 L13.1804646,46.0980392 Z M23.6396665,47.5294118 L20.6426444,47.5294118 L20.0857653,48.8627451 L18.0405003,48.8627451 L21.1691483,42 L23.1435378,42 L26.2823109,48.8627451 L24.1965456,48.8627451 L23.6396665,47.5294118 Z M23.0524122,46.0980392 L22.1411555,43.9019608 L21.2298988,46.0980392 L23.0524122,46.0980392 Z M31.5675998,47.0392157 L30.4740917,47.0392157 L30.4740917,48.8627451 L28.469327,48.8627451 L28.469327,42 L31.7093508,42 C32.3506087,42 32.9074823,42.1029401 33.3799881,42.3088235 C33.8524939,42.5147069 34.216993,42.8088216 34.4734961,43.1911765 C34.7299993,43.5735313 34.858249,44.0228732 34.858249,44.5392157 C34.858249,45.0359502 34.7384368,45.4689524 34.4988088,45.8382353 C34.2591809,46.2075182 33.9166193,46.496731 33.4711138,46.7058824 L35,48.8627451 L32.8534842,48.8627451 L31.5675998,47.0392157 Z M32.8332341,44.5392157 C32.8332341,44.2189526 32.7286093,43.9705891 32.5193568,43.7941176 C32.3101042,43.6176462 31.999605,43.5294118 31.5878499,43.5294118 L30.4740917,43.5294118 L30.4740917,45.5392157 L31.5878499,45.5392157 C31.999605,45.5392157 32.3101042,45.4526152 32.5193568,45.2794118 C32.7286093,45.1062083 32.8332341,44.8594787 32.8332341,44.5392157 Z" id="JAAR"></path>
                <g id="crown-logo" transform="translate(5.000000, 0.000000)">
                    <path d="M18.5611795,4.86361918 C18.6727462,4.88991436 18.7892521,4.90384615 18.9090909,4.90384615 C19.7249661,4.90384615 20.3863636,4.258103 20.3863636,3.46153846 C20.3863636,2.66497392 19.7249661,2.01923077 18.9090909,2.01923077 C18.0932157,2.01923077 17.4318182,2.66497392 17.4318182,3.46153846 C17.4318182,4.08116407 17.8320203,4.60952984 18.3938277,4.8136863 C18.1383189,5.35525307 17.6666286,6.28975037 17.0133928,7.31282972 L17.0133928,7.31282972 C17.484105,7.39714203 17.9196373,7.48709425 18.3060547,7.57392535 C18.4115095,6.41981253 18.5056292,5.43660795 18.5611795,4.86361918 L18.5611795,4.86361918 Z M7.43882048,4.86361918 C7.32725379,4.88991436 7.21074786,4.90384615 7.09090909,4.90384615 C6.27503389,4.90384615 5.61363636,4.258103 5.61363636,3.46153846 C5.61363636,2.66497392 6.27503389,2.01923077 7.09090909,2.01923077 C7.90678429,2.01923077 8.56818182,2.66497392 8.56818182,3.46153846 C8.56818182,4.08116407 8.16797973,4.60952984 7.60617229,4.8136863 C7.86168106,5.35525307 8.33337145,6.28975037 8.98660716,7.31282972 C8.51589503,7.39714203 8.08036268,7.48709425 7.69394531,7.57392535 C7.58849047,6.41981253 7.49437076,5.43660795 7.43882048,4.86361918 Z M2.96687453,5.31764792 C4.49337841,6.87714018 7.26810115,9.46394896 10.0098672,10.7550633 C11.7901406,9.03601947 12.6442839,4.96654865 12.9077423,3.45923496 C11.9715722,3.41237475 11.2272727,2.65643494 11.2272727,1.73076923 C11.2272727,0.774891779 12.0209498,0 13,0 C13.9790502,0 14.7727273,0.774891779 14.7727273,1.73076923 C14.7727273,2.65643494 14.0284278,3.41237475 13.0922577,3.45923496 C13.3557161,4.96654856 14.2098592,9.03601902 15.9901323,10.7550631 C18.7318985,9.46394876 21.5066214,6.87714005 23.0331254,5.31764786 C22.6776193,5.00111847 22.4545455,4.54522426 22.4545455,4.03846154 C22.4545455,3.08258409 23.2482225,2.30769231 24.2272727,2.30769231 C25.206323,2.30769231 26,3.08258409 26,4.03846154 C26,4.99433899 25.206323,5.76923077 24.2272727,5.76923077 C23.8758591,5.76923077 23.5483277,5.66939911 23.2728079,5.49719947 C21.8594607,7.71892104 19.3308207,11.9525886 18.9090909,14.4230769 C18.9090909,14.4230769 16.5454545,15 13,15 C9.45454545,15 7.09090909,14.4230774 7.09090909,14.4230769 C6.66917926,11.9525886 4.14053933,7.71892104 2.72719211,5.49719947 C2.45167233,5.66939911 2.1241409,5.76923077 1.77272727,5.76923077 C0.793677034,5.76923077 0,4.99433899 0,4.03846154 C0,3.08258409 0.793677034,2.30769231 1.77272727,2.30769231 C2.75177751,2.30769231 3.54545455,3.08258409 3.54545455,4.03846154 C3.54545455,4.5452243 3.32238064,5.00111853 2.96687453,5.31764792 Z" id="kroon-100%"></path>
                </g>
            </g>
        </g>
        <g id="Group" transform="translate(51.000000, 8.000000)" fill="#FFFFFF">
            <path d="M4.665,15.15 C3.85499595,15.15 3.07250377,15.0350011 2.3175,14.805 C1.56249622,14.5749989 0.9650022,14.2700019 0.525,13.89 L1.2,12.375 C1.63000215,12.7150017 2.15749687,12.9924989 2.7825,13.2075 C3.40750312,13.4225011 4.03499685,13.53 4.665,13.53 C5.4450039,13.53 6.02749808,13.4050012 6.4125,13.155 C6.79750192,12.9049988 6.99,12.5750021 6.99,12.165 C6.99,11.8649985 6.88250107,11.617501 6.6675,11.4225 C6.45249892,11.227499 6.18000165,11.0750006 5.85,10.965 C5.51999835,10.8549995 5.07000285,10.7300007 4.5,10.59 C3.699996,10.399999 3.05250247,10.2100009 2.5575,10.02 C2.06249753,9.82999905 1.63750177,9.53250202 1.2825,9.1275 C0.927498225,8.72249797 0.75,8.17500345 0.75,7.485 C0.75,6.9049971 0.907498425,6.37750238 1.2225,5.9025 C1.53750157,5.42749762 2.01249682,5.0500014 2.6475,4.77 C3.28250317,4.4899986 4.0599954,4.35 4.98,4.35 C5.6200032,4.35 6.2499969,4.4299992 6.87,4.59 C7.4900031,4.7500008 8.02499775,4.9799985 8.475,5.28 L7.86,6.795 C7.3999977,6.52499865 6.9200025,6.3200007 6.42,6.18 C5.9199975,6.0399993 5.43500235,5.97 4.965,5.97 C4.19499615,5.97 3.62250188,6.0999987 3.2475,6.36 C2.87249812,6.6200013 2.685,6.96499785 2.685,7.395 C2.685,7.6950015 2.79249893,7.93999905 3.0075,8.13 C3.22250107,8.32000095 3.49499835,8.46999945 3.825,8.58 C4.15500165,8.69000055 4.60499715,8.8149993 5.175,8.955 C5.9550039,9.1350009 6.5949975,9.32249903 7.095,9.5175 C7.5950025,9.71250098 8.02249822,10.009998 8.3775,10.41 C8.73250177,10.810002 8.91,11.3499966 8.91,12.03 C8.91,12.6100029 8.75250158,13.1349976 8.4375,13.605 C8.12249842,14.0750024 7.6450032,14.4499986 7.005,14.73 C6.3649968,15.0100014 5.5850046,15.15 4.665,15.15 Z M15.705,15.15 C14.6449947,15.15 13.6875043,14.9175023 12.8325,14.4525 C11.9774957,13.9874977 11.3075024,13.3450041 10.8225,12.525 C10.3374976,11.7049959 10.095,10.7800052 10.095,9.75 C10.095,8.71999485 10.3399975,7.7950041 10.83,6.975 C11.3200025,6.1549959 11.9924957,5.51250232 12.8475,5.0475 C13.7025043,4.58249767 14.6599947,4.35 15.72,4.35 C16.5800043,4.35 17.3649964,4.4999985 18.075,4.8 C18.7850035,5.1000015 19.3849976,5.53499715 19.875,6.105 L18.615,7.29 C17.8549962,6.4699959 16.9200055,6.06 15.81,6.06 C15.0899964,6.06 14.4450029,6.21749843 13.875,6.5325 C13.3049971,6.84750157 12.8600016,7.2849972 12.54,7.845 C12.2199984,8.4050028 12.06,9.03999645 12.06,9.75 C12.06,10.4600035 12.2199984,11.0949972 12.54,11.655 C12.8600016,12.2150028 13.3049971,12.6524984 13.875,12.9675 C14.4450029,13.2825016 15.0899964,13.44 15.81,13.44 C16.9200055,13.44 17.8549962,13.0250041 18.615,12.195 L19.875,13.395 C19.3849976,13.9650028 18.7825036,14.3999985 18.0675,14.7 C17.3524964,15.0000015 16.5650043,15.15 15.705,15.15 Z M26.43,15.15 C25.3599946,15.15 24.3950043,14.9175023 23.535,14.4525 C22.6749957,13.9874977 22.0000024,13.3425041 21.51,12.5175 C21.0199975,11.6924959 20.775,10.7700051 20.775,9.75 C20.775,8.7299949 21.0199975,7.80750413 21.51,6.9825 C22.0000024,6.15749588 22.6749957,5.51250232 23.535,5.0475 C24.3950043,4.58249767 25.3599946,4.35 26.43,4.35 C27.5000053,4.35 28.4649957,4.58249767 29.325,5.0475 C30.1850043,5.51250232 30.8599975,6.1549959 31.35,6.975 C31.8400024,7.7950041 32.085,8.71999485 32.085,9.75 C32.085,10.7800052 31.8400024,11.7049959 31.35,12.525 C30.8599975,13.3450041 30.1850043,13.9874977 29.325,14.4525 C28.4649957,14.9175023 27.5000053,15.15 26.43,15.15 Z M26.43,13.44 C27.1300035,13.44 27.7599972,13.2825016 28.32,12.9675 C28.8800028,12.6524984 29.3199984,12.2125028 29.64,11.6475 C29.9600016,11.0824972 30.12,10.4500035 30.12,9.75 C30.12,9.0499965 29.9600016,8.41750282 29.64,7.8525 C29.3199984,7.28749717 28.8800028,6.84750157 28.32,6.5325 C27.7599972,6.21749843 27.1300035,6.06 26.43,6.06 C25.7299965,6.06 25.1000028,6.21749843 24.54,6.5325 C23.9799972,6.84750157 23.5400016,7.28749717 23.22,7.8525 C22.8999984,8.41750282 22.74,9.0499965 22.74,9.75 C22.74,10.4500035 22.8999984,11.0824972 23.22,11.6475 C23.5400016,12.2125028 23.9799972,12.6524984 24.54,12.9675 C25.1000028,13.2825016 25.7299965,13.44 26.43,13.44 Z M38.67,15.15 C37.2199928,15.15 36.0900041,14.7425041 35.28,13.9275 C34.469996,13.1124959 34.065,11.9450076 34.065,10.425 L34.065,4.5 L36.015,4.5 L36.015,10.35 C36.015,12.4100103 36.9049911,13.44 38.685,13.44 C40.4550089,13.44 41.34,12.4100103 41.34,10.35 L41.34,4.5 L43.26,4.5 L43.26,10.425 C43.26,11.9450076 42.857504,13.1124959 42.0525,13.9275 C41.247496,14.7425041 40.1200073,15.15 38.67,15.15 Z M47.925,6.15 L44.445,6.15 L44.445,4.5 L53.355,4.5 L53.355,6.15 L49.875,6.15 L49.875,15 L47.925,15 L47.925,6.15 Z M57.975,15.15 C57.164996,15.15 56.3825038,15.0350011 55.6275,14.805 C54.8724962,14.5749989 54.2750022,14.2700019 53.835,13.89 L54.51,12.375 C54.9400022,12.7150017 55.4674969,12.9924989 56.0925,13.2075 C56.7175031,13.4225011 57.3449969,13.53 57.975,13.53 C58.7550039,13.53 59.3374981,13.4050012 59.7225,13.155 C60.1075019,12.9049988 60.3,12.5750021 60.3,12.165 C60.3,11.8649985 60.1925011,11.617501 59.9775,11.4225 C59.7624989,11.227499 59.4900017,11.0750006 59.16,10.965 C58.8299984,10.8549995 58.3800028,10.7300007 57.81,10.59 C57.009996,10.399999 56.3625025,10.2100009 55.8675,10.02 C55.3724975,9.82999905 54.9475018,9.53250202 54.5925,9.1275 C54.2374982,8.72249797 54.06,8.17500345 54.06,7.485 C54.06,6.9049971 54.2174984,6.37750238 54.5325,5.9025 C54.8475016,5.42749762 55.3224968,5.0500014 55.9575,4.77 C56.5925032,4.4899986 57.3699954,4.35 58.29,4.35 C58.9300032,4.35 59.5599969,4.4299992 60.18,4.59 C60.8000031,4.7500008 61.3349977,4.9799985 61.785,5.28 L61.17,6.795 C60.7099977,6.52499865 60.2300025,6.3200007 59.73,6.18 C59.2299975,6.0399993 58.7450024,5.97 58.275,5.97 C57.5049962,5.97 56.9325019,6.0999987 56.5575,6.36 C56.1824981,6.6200013 55.995,6.96499785 55.995,7.395 C55.995,7.6950015 56.1024989,7.93999905 56.3175,8.13 C56.5325011,8.32000095 56.8049984,8.46999945 57.135,8.58 C57.4650017,8.69000055 57.9149972,8.8149993 58.485,8.955 C59.2650039,9.1350009 59.9049975,9.32249903 60.405,9.5175 C60.9050025,9.71250098 61.3324982,10.009998 61.6875,10.41 C62.0425018,10.810002 62.22,11.3499966 62.22,12.03 C62.22,12.6100029 62.0625016,13.1349976 61.7475,13.605 C61.4324984,14.0750024 60.9550032,14.4499986 60.315,14.73 C59.6749968,15.0100014 58.8950046,15.15 57.975,15.15 Z M72.615,4.5 C73.5250045,4.5 74.3174966,4.6499985 74.9925,4.95 C75.6675034,5.2500015 76.1849982,5.6799972 76.545,6.24 C76.9050018,6.8000028 77.085,7.46499615 77.085,8.235 C77.085,8.9950038 76.9050018,9.65749717 76.545,10.2225 C76.1849982,10.7875028 75.6675034,11.2199985 74.9925,11.52 C74.3174966,11.8200015 73.5250045,11.97 72.615,11.97 L70.245,11.97 L70.245,15 L68.295,15 L68.295,4.5 L72.615,4.5 Z M72.525,10.32 C73.3750043,10.32 74.0199978,10.1400018 74.46,9.78 C74.9000022,9.4199982 75.12,8.90500335 75.12,8.235 C75.12,7.56499665 74.9000022,7.0500018 74.46,6.69 C74.0199978,6.3299982 73.3750043,6.15 72.525,6.15 L70.245,6.15 L70.245,10.32 L72.525,10.32 Z M85.905,15 L83.76,11.925 C83.6699995,11.935 83.5350009,11.94 83.355,11.94 L80.985,11.94 L80.985,15 L79.035,15 L79.035,4.5 L83.355,4.5 C84.2650046,4.5 85.0574966,4.6499985 85.7325,4.95 C86.4075034,5.2500015 86.9249982,5.6799972 87.285,6.24 C87.6450018,6.8000028 87.825,7.46499615 87.825,8.235 C87.825,9.02500395 87.6325019,9.70499715 87.2475,10.275 C86.8624981,10.8450029 86.3100036,11.2699986 85.59,11.55 L88.005,15 L85.905,15 Z M85.86,8.235 C85.86,7.56499665 85.6400022,7.0500018 85.2,6.69 C84.7599978,6.3299982 84.1150042,6.15 83.265,6.15 L80.985,6.15 L80.985,10.335 L83.265,10.335 C84.1150042,10.335 84.7599978,10.1525018 85.2,9.7875 C85.6400022,9.42249818 85.86,8.90500335 85.86,8.235 Z M90,4.5 L91.95,4.5 L91.95,15 L90,15 L90,4.5 Z M104.115,4.5 L104.115,15 L102.51,15 L96.72,7.89 L96.72,15 L94.785,15 L94.785,4.5 L96.39,4.5 L102.18,11.61 L102.18,4.5 L104.115,4.5 Z M110.19,15.15 C109.379996,15.15 108.597504,15.0350011 107.8425,14.805 C107.087496,14.5749989 106.490002,14.2700019 106.05,13.89 L106.725,12.375 C107.155002,12.7150017 107.682497,12.9924989 108.3075,13.2075 C108.932503,13.4225011 109.559997,13.53 110.19,13.53 C110.970004,13.53 111.552498,13.4050012 111.9375,13.155 C112.322502,12.9049988 112.515,12.5750021 112.515,12.165 C112.515,11.8649985 112.407501,11.617501 112.1925,11.4225 C111.977499,11.227499 111.705002,11.0750006 111.375,10.965 C111.044998,10.8549995 110.595003,10.7300007 110.025,10.59 C109.224996,10.399999 108.577502,10.2100009 108.0825,10.02 C107.587498,9.82999905 107.162502,9.53250202 106.8075,9.1275 C106.452498,8.72249797 106.275,8.17500345 106.275,7.485 C106.275,6.9049971 106.432498,6.37750238 106.7475,5.9025 C107.062502,5.42749762 107.537497,5.0500014 108.1725,4.77 C108.807503,4.4899986 109.584995,4.35 110.505,4.35 C111.145003,4.35 111.774997,4.4299992 112.395,4.59 C113.015003,4.7500008 113.549998,4.9799985 114,5.28 L113.385,6.795 C112.924998,6.52499865 112.445003,6.3200007 111.945,6.18 C111.444997,6.0399993 110.960002,5.97 110.49,5.97 C109.719996,5.97 109.147502,6.0999987 108.7725,6.36 C108.397498,6.6200013 108.21,6.96499785 108.21,7.395 C108.21,7.6950015 108.317499,7.93999905 108.5325,8.13 C108.747501,8.32000095 109.019998,8.46999945 109.35,8.58 C109.680002,8.69000055 110.129997,8.8149993 110.7,8.955 C111.480004,9.1350009 112.119998,9.32249903 112.62,9.5175 C113.120002,9.71250098 113.547498,10.009998 113.9025,10.41 C114.257502,10.810002 114.435,11.3499966 114.435,12.03 C114.435,12.6100029 114.277502,13.1349976 113.9625,13.605 C113.647498,14.0750024 113.170003,14.4499986 112.53,14.73 C111.889997,15.0100014 111.110005,15.15 110.19,15.15 Z" id="SCOUTS-PRINS"></path>
        </g>
        <path d="M57.7507464,44.8448753 L51,44.8448753 L51,29.3545706 L57.0006635,29.3545706 C58.0449018,29.3545706 58.9457277,29.4801465 59.7031682,29.7313019 C60.4606087,29.9824574 61.0305189,30.3222509 61.4129161,30.7506925 C62.1041724,31.5484804 62.4497954,32.4496718 62.4497954,33.4542936 C62.4497954,34.6657494 62.0600504,35.5669407 61.2805485,36.1578947 C61.015812,36.3647286 60.83197,36.4939979 60.7290169,36.5457064 C60.6260639,36.5974148 60.4422218,36.6823632 60.1774854,36.800554 C61.1334782,37.0073879 61.8945842,37.4395166 62.4608261,38.0969529 C63.027068,38.7543893 63.3101847,39.5706322 63.3101847,40.5457064 C63.3101847,41.6241975 62.9425007,42.5770965 62.2071215,43.4044321 C61.3540818,44.3647324 59.8686383,44.8448753 57.7507464,44.8448753 L57.7507464,44.8448753 Z M54.441557,35.6260388 L56.0740905,35.6260388 C57.0300833,35.6260388 57.7397135,35.5226234 58.2030023,35.3157895 C58.6662912,35.1089556 58.8979321,34.6620533 58.8979321,33.9750693 C58.8979321,33.2880852 58.6846754,32.8337961 58.2581555,32.6121884 C57.8316356,32.3905806 57.1109749,32.2797784 56.0961517,32.2797784 L54.441557,32.2797784 L54.441557,35.6260388 Z M54.441557,41.9196676 L56.8021121,41.9196676 C57.7875201,41.9196676 58.5265651,41.7977852 59.0192691,41.5540166 C59.5119731,41.3102481 59.7583214,40.8301052 59.7583214,40.1135734 C59.7583214,39.3970417 59.4972657,38.9242855 58.9751465,38.6952909 C58.4530274,38.4662962 57.6183846,38.3518006 56.4711932,38.3518006 L54.441557,38.3518006 L54.441557,41.9196676 Z M76.1047979,33.4764543 C75.222343,32.5013802 74.1376751,32.0138504 72.8507616,32.0138504 C71.5638482,32.0138504 70.4791803,32.5013802 69.5967254,33.4764543 C68.7142704,34.4515284 68.2730496,35.6297253 68.2730496,37.0110803 C68.2730496,38.3924353 68.7142704,39.5669388 69.5967254,40.534626 C70.4791803,41.5023132 71.5638482,41.9861496 72.8507616,41.9861496 C74.1376751,41.9861496 75.222343,41.5023132 76.1047979,40.534626 C76.9872528,39.5669388 77.4284737,38.3924353 77.4284737,37.0110803 C77.4284737,35.6297253 76.9872528,34.4515284 76.1047979,33.4764543 L76.1047979,33.4764543 Z M72.839731,45 C70.5600558,45 68.6407451,44.2354647 67.0817414,42.7063712 C65.5227377,41.1772777 64.7432475,39.275173 64.7432475,37 C64.7432475,34.724827 65.5227377,32.8227223 67.0817414,31.2936288 C68.6407451,29.7645353 70.5600558,29 72.839731,29 C75.1194062,29 77.0387169,29.7645353 78.5977206,31.2936288 C80.1567243,32.8227223 80.9362145,34.724827 80.9362145,37 C80.9362145,39.275173 80.1567243,41.1772777 78.5977206,42.7063712 C77.0387169,44.2354647 75.1194062,45 72.839731,45 L72.839731,45 Z M89.6715554,41.9196676 C90.6422558,41.9196676 91.4107154,41.5614071 91.9769573,40.8448753 C92.5431992,40.1283436 92.8263159,39.1495907 92.8263159,37.9085873 L92.8263159,29.3545706 L96.267873,29.3545706 L96.267873,38.0193906 C96.267873,40.2650158 95.6501638,41.989837 94.4147269,43.1939058 C93.17929,44.3979746 91.5982486,45 89.6715554,45 C87.7448621,45 86.1601439,44.3942812 84.9173532,43.1828255 C83.6745625,41.9713698 83.0531765,40.250242 83.0531765,38.0193906 L83.0531765,29.3545706 L86.4947335,29.3545706 L86.4947335,37.9085873 C86.4947335,39.1495907 86.781527,40.1283436 87.3551228,40.8448753 C87.9287185,41.5614071 88.7008549,41.9196676 89.6715554,41.9196676 L89.6715554,41.9196676 Z M111.048,31.3822715 C112.518758,32.7340788 113.254126,34.614023 113.254126,37.0221607 C113.254126,39.4302983 112.537142,41.3360964 111.103153,42.7396122 C109.669164,44.143128 107.481444,44.8448753 104.539927,44.8448753 L99.2672855,44.8448753 L99.2672855,29.3545706 L104.716417,29.3545706 C107.466735,29.3545706 109.577242,30.0304642 111.048,31.3822715 L111.048,31.3822715 Z M108.521985,40.5900277 C109.367671,39.7922398 109.790508,38.6325099 109.790508,37.1108033 C109.790508,35.5890967 109.367671,34.4182866 108.521985,33.598338 C107.676299,32.7783893 106.378375,32.3684211 104.628172,32.3684211 L102.708842,32.3684211 L102.708842,41.7867036 L104.892908,41.7867036 C106.466619,41.7867036 107.676299,41.3878156 108.521985,40.5900277 L108.521985,40.5900277 Z M126.776761,29.3545706 L126.776761,32.434903 L119.099442,32.434903 L119.099442,35.6260388 L126.004617,35.6260388 L126.004617,38.5734072 L119.099442,38.5734072 L119.099442,41.7867036 L127.019435,41.7867036 L127.019435,44.8448753 L115.657885,44.8448753 L115.657885,29.3545706 L126.776761,29.3545706 Z M134.320794,38.2631579 L137.05639,29.3545706 L140.652376,29.3545706 L143.365911,38.2631579 L146.432427,29.3545706 L150.16078,29.3545706 L144.777832,44.8448753 L142.218726,44.8448753 L138.843353,34.0747922 L135.490041,44.8448753 L132.930934,44.8448753 L127.547986,29.3545706 L131.276339,29.3545706 L134.320794,38.2631579 Z M151.417353,29.3545706 L154.85891,29.3545706 L154.85891,44.8448753 L151.417353,44.8448753 L151.417353,29.3545706 Z M163.21921,29.3545706 L166.682828,29.3545706 L166.682828,39.4598338 C166.682828,41.3065651 166.208515,42.6878994 165.259876,43.6038781 C164.311237,44.5198568 163.094203,44.9778393 161.608737,44.9778393 C159.755582,44.9778393 158.137772,44.2613183 156.75526,42.8282548 L158.542222,40.3462604 C159.4688,41.3508822 160.439485,41.8531856 161.454309,41.8531856 C161.939659,41.8531856 162.355142,41.6648218 162.70077,41.2880886 C163.046398,40.9113555 163.21921,40.3462642 163.21921,39.5927978 L163.21921,29.3545706 Z M180.558443,29.3545706 L184,29.3545706 L184,44.8448753 L180.558443,44.8448753 L173.212042,35.1385042 L173.212042,44.8448753 L169.770485,44.8448753 L169.770485,29.3545706 L172.99143,29.3545706 L180.558443,39.3268698 L180.558443,29.3545706 Z" id="BOUDEWIJN" fill="#FFFFFF"></path>
    </g>
</svg>