<?xml version="1.0" encoding="UTF-8" standalone="no"?>
<svg width="197px" height="40px" viewBox="0 0 197 40" version="1.1" xmlns="http://www.w3.org/2000/svg" xmlns:xlink="http://www.w3.org/1999/xlink">
    <!-- Generator: Sketch 39.1 (31720) - http://www.bohemiancoding.com/sketch -->
    <title>scouts</title>
    <desc>Created with Sketch.</desc>
    <defs></defs>
    <g id="Symbols" stroke="none" stroke-width="1" fill="none" fill-rule="evenodd">
        <g id="scouts" transform="translate(0.000000, -4.000000)">
            <text id="SCOUTS-PRINS-BOUDEWI" font-family="Montserrat-Bold, Montserrat" font-size="20" font-weight="bold" letter-spacing="-0.465156108" fill="#9E172E">
                <tspan x="50" y="19">SCOUTS PRINS </tspan>
                <tspan x="50" y="43">BOUDEWIJN</tspan>
            </text>
            <g id="Group-3" transform="translate(0.000000, 5.500000)" fill="#881327">
                <path d="M14.5012174,0 C22.4486077,0 28.9999995,6.188358 29,13.830752 C29.0000001,14.8534745 28.8804278,15.900587 28.6488791,16.9694398 C27.8005687,20.8853274 25.5027763,24.9698422 22.2099422,29.0788305 C20.7593191,30.8890017 19.2086372,32.5843579 17.6575009,34.1203816 C17.1138456,34.6587401 16.6081494,35.1394682 16.1529021,35.5567737 C15.8761278,35.8104808 15.6750552,35.9888758 15.5621982,36.0860972 L14.5013175,37 L13.44035,36.086195 C13.3277667,35.9892276 13.1269487,35.8112195 12.8504119,35.5581538 C12.3954035,35.1417643 11.8899306,34.6624488 11.3464839,34.1261215 C9.79577135,32.5957241 8.24545243,30.9099325 6.79509296,29.1142276 C3.6719822,25.2474722 1.43957483,21.4128785 0.491629126,17.7388084 C0.168198073,16.4852468 0,15.262923 0,14.0759682 C3.5773853e-16,6.29635198 6.49807945,0 14.5012174,0 Z M14.5,20 C17.5375661,20 20,17.5375661 20,14.5 C20,11.4624339 17.5375661,9 14.5,9 C11.4624339,9 9,11.4624339 9,14.5 C9,17.5375661 11.4624339,20 14.5,20 Z" id="Combined-Shape"></path>
            </g>
        </g>
    </g>
</svg>