<?xml version="1.0" standalone="no"?>
<!DOCTYPE svg PUBLIC "-//W3C//DTD SVG 20010904//EN"
 "http://www.w3.org/TR/2001/REC-SVG-20010904/DTD/svg10.dtd">
<svg version="1.0" xmlns="http://www.w3.org/2000/svg"
 width="890.000000pt" height="890.000000pt" viewBox="0 0 890.000000 890.000000"
 preserveAspectRatio="xMidYMid meet">
<metadata>
Created by potrace 1.11, written by Peter Selinger 2001-2013
</metadata>
<g transform="translate(0.000000,890.000000) scale(0.100000,-0.100000)"
fill="#000000" stroke="none">
<path d="M4315 7033 c-208 -44 -401 -235 -447 -443 -33 -147 -16 -281 53 -417
72 -144 212 -256 374 -301 82 -23 79 -22 106 -22 15 0 19 -5 15 -17 -3 -10 -7
-34 -10 -53 -3 -19 -8 -46 -11 -60 -3 -14 -8 -38 -10 -55 -22 -125 -87 -417
-131 -585 -68 -262 -197 -674 -239 -767 -8 -17 -15 -34 -15 -38 0 -3 -24 -63
-54 -133 -142 -332 -278 -562 -444 -749 l-63 -73 -79 40 c-43 22 -113 60 -155
85 -42 25 -78 45 -81 45 -9 0 -231 141 -358 228 -192 130 -414 296 -571 426
-27 22 -61 50 -74 61 -35 29 -268 230 -321 278 -209 187 -740 704 -740 721 0
4 19 30 43 56 118 131 171 335 133 513 -38 179 -155 330 -318 412 -386 193
-848 -77 -864 -505 -7 -183 49 -325 175 -450 87 -87 165 -132 277 -160 133
-34 273 -20 402 40 61 28 65 29 78 13 15 -21 292 -480 322 -535 12 -20 32 -55
46 -77 15 -22 26 -43 26 -45 0 -2 27 -51 61 -108 34 -57 74 -128 90 -158 16
-30 40 -73 52 -95 13 -22 47 -85 77 -140 29 -55 61 -114 71 -130 21 -35 287
-568 317 -635 11 -25 32 -72 47 -105 166 -370 274 -675 335 -947 15 -69 26
-99 38 -102 39 -12 355 -72 430 -81 20 -2 55 -7 77 -11 22 -4 51 -8 65 -10 14
-1 63 -7 110 -13 259 -33 406 -46 760 -68 160 -10 913 -10 1090 0 202 12 356
23 430 32 19 3 62 7 95 10 33 3 114 12 180 20 66 8 138 17 160 20 136 17 500
82 567 101 15 4 19 15 32 79 49 238 181 619 317 913 16 35 29 65 29 67 0 15
311 645 364 738 13 23 42 76 63 117 22 41 53 98 68 125 85 153 126 225 209
368 50 87 96 167 102 178 24 42 286 475 299 492 13 17 15 17 63 -7 187 -95
427 -82 598 32 315 210 366 638 109 911 -115 121 -249 181 -417 186 -170 6
-305 -46 -428 -162 -120 -113 -180 -244 -186 -409 -6 -160 44 -304 144 -415
35 -39 41 -52 33 -66 -19 -35 -540 -542 -726 -706 -22 -19 -63 -56 -90 -80
-183 -164 -565 -469 -760 -606 -252 -178 -487 -322 -712 -439 l-81 -42 -52 57
c-28 31 -63 72 -78 92 -15 20 -29 38 -32 41 -3 3 -23 32 -46 65 -183 268 -371
694 -512 1160 -49 164 -62 209 -67 230 -2 11 -20 83 -40 160 -51 200 -159 714
-151 722 1 1 20 5 42 8 73 11 169 44 229 80 227 136 339 402 276 653 -29 119
-73 194 -161 282 -152 152 -344 209 -555 163z"/>
<path d="M2300 6324 c-90 -28 -158 -72 -221 -143 -110 -123 -150 -283 -114
-456 15 -69 69 -161 134 -225 110 -109 224 -152 383 -146 l88 4 1 -32 c1 -17
3 -40 4 -51 2 -20 7 -73 25 -265 13 -133 19 -202 25 -265 8 -74 14 -151 21
-235 3 -41 8 -77 10 -79 3 -4 34 2 184 34 41 9 86 18 100 20 14 3 36 7 50 10
14 4 42 9 62 12 43 6 43 10 -17 103 -37 59 -81 133 -160 275 -59 105 -245 476
-245 488 0 6 24 23 53 36 101 48 205 174 247 301 16 49 21 185 8 245 -39 189
-205 350 -396 385 -86 15 -159 11 -242 -16z"/>
<path d="M6340 6337 c-311 -70 -476 -414 -338 -706 38 -79 142 -186 215 -221
29 -14 52 -30 53 -36 1 -33 -365 -718 -442 -827 -11 -16 -19 -30 -17 -32 2 -2
20 -6 39 -9 19 -3 68 -12 107 -20 40 -9 85 -18 100 -21 73 -13 87 -16 93 -20
4 -2 27 -7 53 -10 l47 -7 1 34 c2 48 5 94 13 173 4 39 9 88 11 110 1 22 6 67
9 100 3 33 11 112 16 175 9 103 19 198 25 255 1 11 3 34 4 50 l1 30 108 0
c160 0 257 39 363 145 261 260 161 698 -188 822 -71 25 -198 32 -273 15z"/>
</g>
</svg>
