<svg width="24" height="24" viewBox="0 0 24 24" fill="none" xmlns="http://www.w3.org/2000/svg">
<path d="M21.1924 1.3934L1.3934 21.1924C1.00288 21.5829 1.00288 22.2161 1.3934 22.6066C1.78393 22.9971 2.41709 22.9971 2.80761 22.6066L22.6066 2.80761C22.9971 2.41709 22.9971 1.78392 22.6066 1.3934C22.2161 1.00287 21.5829 1.00287 21.1924 1.3934Z" fill="#470A14"/>
<path d="M22.6066 21.1924L2.80762 1.3934C2.41709 1.00287 1.78393 1.00287 1.3934 1.3934C1.00288 1.78392 1.00288 2.41709 1.3934 2.80761L21.1924 22.6066C21.5829 22.9971 22.2161 22.9971 22.6066 22.6066C22.9971 22.2161 22.9971 21.5829 22.6066 21.1924Z" fill="#470A14"/>
</svg>
