<svg width="30" height="30" viewBox="0 0 30 30" fill="none" xmlns="http://www.w3.org/2000/svg">
<circle cx="14.5" cy="14.5" r="9.5" stroke="#3E0007" stroke-opacity="0.4" stroke-width="3"/>
<path d="M14.314 11.352C13.978 11.352 13.6607 11.394 13.362 11.478C13.0633 11.562 12.732 11.6973 12.368 11.884L11.78 10.302C12.144 10.0687 12.5733 9.89133 13.068 9.77C13.5627 9.63933 14.048 9.574 14.524 9.574C15.1213 9.574 15.6113 9.65333 15.994 9.812C16.386 9.97067 16.694 10.1713 16.918 10.414C17.142 10.6567 17.296 10.9227 17.38 11.212C17.4733 11.5013 17.52 11.7767 17.52 12.038C17.52 12.2993 17.478 12.542 17.394 12.766C17.3193 12.9807 17.2213 13.1813 17.1 13.368C16.9787 13.5547 16.8387 13.732 16.68 13.9C16.5213 14.068 16.3673 14.2267 16.218 14.376C16.106 14.488 15.9893 14.6093 15.868 14.74C15.7467 14.8613 15.6347 14.992 15.532 15.132C15.4387 15.272 15.3593 15.4213 15.294 15.58C15.2287 15.7293 15.196 15.8833 15.196 16.042C15.196 16.0793 15.196 16.1353 15.196 16.21C15.196 16.2847 15.2007 16.35 15.21 16.406H13.362C13.3433 16.3127 13.3293 16.21 13.32 16.098C13.32 15.9767 13.32 15.874 13.32 15.79C13.32 15.5287 13.3527 15.2953 13.418 15.09C13.4833 14.8753 13.5673 14.6793 13.67 14.502C13.782 14.3153 13.908 14.1427 14.048 13.984C14.188 13.8253 14.3327 13.6713 14.482 13.522C14.6967 13.3073 14.8927 13.0973 15.07 12.892C15.2473 12.6773 15.336 12.4347 15.336 12.164C15.336 11.94 15.2473 11.7487 15.07 11.59C14.902 11.4313 14.65 11.352 14.314 11.352ZM15.616 18.394C15.616 18.8047 15.4807 19.122 15.21 19.346C14.9487 19.57 14.65 19.682 14.314 19.682C13.978 19.682 13.6747 19.57 13.404 19.346C13.1427 19.122 13.012 18.8047 13.012 18.394C13.012 17.9833 13.1427 17.666 13.404 17.442C13.6747 17.218 13.978 17.106 14.314 17.106C14.65 17.106 14.9487 17.218 15.21 17.442C15.4807 17.666 15.616 17.9833 15.616 18.394Z" fill="#3E0007" fill-opacity="0.4"/>
</svg>
