<svg width="30" height="30" viewBox="0 0 30 30" fill="none" xmlns="http://www.w3.org/2000/svg">
<circle cx="15" cy="15" r="11" stroke="#3E0007" stroke-width="3"/>
<path d="M14.618 11.024C14.186 11.024 13.778 11.078 13.394 11.186C13.01 11.294 12.584 11.468 12.116 11.708L11.36 9.674C11.828 9.374 12.38 9.146 13.016 8.99C13.652 8.822 14.276 8.738 14.888 8.738C15.656 8.738 16.286 8.84 16.778 9.044C17.282 9.248 17.678 9.506 17.966 9.818C18.254 10.13 18.452 10.472 18.56 10.844C18.68 11.216 18.74 11.57 18.74 11.906C18.74 12.242 18.686 12.554 18.578 12.842C18.482 13.118 18.356 13.376 18.2 13.616C18.044 13.856 17.864 14.084 17.66 14.3C17.456 14.516 17.258 14.72 17.066 14.912C16.922 15.056 16.772 15.212 16.616 15.38C16.46 15.536 16.316 15.704 16.184 15.884C16.064 16.064 15.962 16.256 15.878 16.46C15.794 16.652 15.752 16.85 15.752 17.054C15.752 17.102 15.752 17.174 15.752 17.27C15.752 17.366 15.758 17.45 15.77 17.522H13.394C13.37 17.402 13.352 17.27 13.34 17.126C13.34 16.97 13.34 16.838 13.34 16.73C13.34 16.394 13.382 16.094 13.466 15.83C13.55 15.554 13.658 15.302 13.79 15.074C13.934 14.834 14.096 14.612 14.276 14.408C14.456 14.204 14.642 14.006 14.834 13.814C15.11 13.538 15.362 13.268 15.59 13.004C15.818 12.728 15.932 12.416 15.932 12.068C15.932 11.78 15.818 11.534 15.59 11.33C15.374 11.126 15.05 11.024 14.618 11.024ZM16.292 20.078C16.292 20.606 16.118 21.014 15.77 21.302C15.434 21.59 15.05 21.734 14.618 21.734C14.186 21.734 13.796 21.59 13.448 21.302C13.112 21.014 12.944 20.606 12.944 20.078C12.944 19.55 13.112 19.142 13.448 18.854C13.796 18.566 14.186 18.422 14.618 18.422C15.05 18.422 15.434 18.566 15.77 18.854C16.118 19.142 16.292 19.55 16.292 20.078Z" fill="#3E0007"/>
</svg>
