<svg width="30" height="30" viewBox="0 0 30 30" fill="none" xmlns="http://www.w3.org/2000/svg">
<circle cx="15" cy="15" r="11" stroke="#470A14" stroke-width="2"/>
<path d="M13.9448 17.522C13.9448 17.042 14.0228 16.622 14.1788 16.262C14.3468 15.89 14.5448 15.578 14.7728 15.326C15.0128 15.074 15.3248 14.774 15.7088 14.426C16.1888 14.006 16.5428 13.646 16.7708 13.346C16.9988 13.034 17.1128 12.662 17.1128 12.23C17.1128 11.642 16.8848 11.174 16.4288 10.826C15.9728 10.466 15.3428 10.286 14.5388 10.286C13.1348 10.286 12.0608 10.76 11.3168 11.708L10.0028 10.772C10.5068 10.124 11.1488 9.626 11.9288 9.278C12.7208 8.93 13.6328 8.756 14.6648 8.756C15.9728 8.756 17.0108 9.044 17.7788 9.62C18.5468 10.184 18.9308 10.964 18.9308 11.96C18.9308 12.452 18.8468 12.89 18.6788 13.274C18.5228 13.646 18.3308 13.958 18.1028 14.21C17.8748 14.462 17.5688 14.762 17.1848 15.11C16.6928 15.554 16.3268 15.944 16.0868 16.28C15.8588 16.616 15.7448 17.03 15.7448 17.522H13.9448ZM14.8628 21.608C14.5268 21.608 14.2448 21.5 14.0168 21.284C13.8008 21.056 13.6928 20.78 13.6928 20.456C13.6928 20.132 13.8008 19.862 14.0168 19.646C14.2448 19.418 14.5268 19.304 14.8628 19.304C15.1988 19.304 15.4748 19.418 15.6908 19.646C15.9068 19.862 16.0148 20.132 16.0148 20.456C16.0148 20.78 15.9008 21.056 15.6728 21.284C15.4568 21.5 15.1868 21.608 14.8628 21.608Z" fill="#470A14"/>
</svg>
