<svg width="21" height="21" viewBox="0 0 21 21" fill="none" xmlns="http://www.w3.org/2000/svg">
<path fill-rule="evenodd" clip-rule="evenodd" d="M1.60465 0H19.3953C20.2816 0 21 0.718427 21 1.60465V19.3953C21 20.2816 20.2816 21 19.3953 21H1.60465C0.718427 21 0 20.2816 0 19.3953V1.60465C0 0.718427 0.718427 0 1.60465 0ZM11.3718 6.97704V9.62783H8.58105V12.9069H11.3718V20.9999H14.5811V12.9069H17.3975L17.7904 9.62783H14.5811V7.18648C14.5811 6.60782 15.0494 6.13946 15.6271 6.13946H17.9299V3.23222C17.7924 3.21703 17.6528 3.20923 17.5112 3.20923H15.1392C13.0585 3.20923 11.3718 4.89589 11.3718 6.97704Z" fill="white"/>
</svg>
